<?xml version="1.0" encoding="utf-8"?>
<!-- Generator: Adobe Illustrator 21.0.0, SVG Export Plug-In . SVG Version: 6.00 Build 0)  -->
<svg version="1.1" id="Layer_1" xmlns="http://www.w3.org/2000/svg" xmlns:xlink="http://www.w3.org/1999/xlink" x="0px" y="0px"
	 viewBox="0 0 512 512" style="enable-background:new 0 0 512 512;" xml:space="preserve">
<style type="text/css">
	.st0{fill:#6248A3;}
	.st1{opacity:0.102;fill:#FFFFFF;enable-background:new    ;}
	.st2{fill:#FFFFFF;}
	.st3{font-family:'Arial-Black';}
	.st4{font-size:60.2279px;}
</style>
<polyline class="st0" points="0,512 512,512 512,0 0,0 0,512 "/>
<polygon id="Shadow" class="st1" points="326.3,181.9 235.8,215.8 233.9,371.2 185.9,400.8 294.2,512 512,512 512,382.7 "/>
<text transform="matrix(1 0 0 1 147.2633 153.018)" class="st2 st3 st4">FIGMA</text>
<path class="st2" d="M256,291.3c0-22.5,18.3-40.8,40.8-40.8s40.8,18.3,40.8,40.8c0,22.5-18.3,40.8-40.8,40.8S256,313.9,256,291.3z
	 M174.4,373c0-22.5,18.3-40.8,40.8-40.8H256V373c0,22.5-18.3,40.8-40.8,40.8S174.4,395.5,174.4,373z M256,168.9v81.6h40.8
	c22.5,0,40.8-18.3,40.8-40.8s-18.3-40.8-40.8-40.8H256z M174.4,209.7c0,22.5,18.3,40.8,40.8,40.8H256v-81.6h-40.8
	C192.7,168.9,174.4,187.2,174.4,209.7z M174.4,291.3c0,22.5,18.3,40.8,40.8,40.8H256v-81.6h-40.8
	C192.7,250.5,174.4,268.8,174.4,291.3z"/>
<path class="st2" d="M188.7,170.3"/>
</svg>
