<?xml version="1.0" encoding="utf-8"?>
<!-- Generator: Adobe Illustrator 21.0.0, SVG Export Plug-In . SVG Version: 6.00 Build 0)  -->
<svg version="1.1" id="Layer_1" xmlns="http://www.w3.org/2000/svg" xmlns:xlink="http://www.w3.org/1999/xlink" x="0px" y="0px"
	 viewBox="0 0 512 512" style="enable-background:new 0 0 512 512;" xml:space="preserve">
<style type="text/css">
	.st0{fill:#3E4041;}
	.st1{opacity:0.102;fill:#FFFFFF;enable-background:new    ;}
	.st2{fill:#FFFFFF;}
	.st3{font-family:'Arial-Black';}
	.st4{font-size:60.2279px;}
	.st5{letter-spacing:2;}
	.st6{letter-spacing:4;}
	.st7{letter-spacing:1;}
</style>
<polyline class="st0" points="0,512 512,512 512,0 0,0 0,512 "/>
<g>
	<polygon class="st1" points="339.6,168.9 288.1,304.6 188.7,170.3 139.5,300.5 345.4,512 512,512 512,355.3 	"/>
	<g>
		<g>
			<path class="st2" d="M153,253l107,139.1l-117.3-87c-3.2-2.4-4.6-6.6-3.4-10.4L153,253L153,253z"/>
		</g>
		<g>
			<polygon class="st2" points="215.4,253 260.1,392.1 260,392.1 153,253 153.1,253 			"/>
		</g>
		<g>
			<polygon class="st2" points="304.7,253 260.1,392.1 260.1,392.1 215.4,253 215.5,253 304.6,253 			"/>
		</g>
		<g>
			<polygon class="st2" points="367.1,253 260.1,392.1 304.7,253 367.1,253 			"/>
		</g>
		<g>
			<path class="st2" d="M380.7,294.6c1.2,3.8-0.1,8-3.4,10.4l-117.3,87l107-139.1l0,0L380.7,294.6z"/>
		</g>
		<g>
			<path class="st2" d="M340.3,170.3l26.7,82.7h-62.4h0l26.8-82.7C332.9,166.1,338.9,166.1,340.3,170.3z"/>
		</g>
		<g>
			<path class="st2" d="M215.5,253L215.5,253h-62.4l26.7-82.7c1.5-4.2,7.5-4.2,8.9,0C188.7,170.3,215.4,253,215.5,253z"/>
		</g>
	</g>
</g>
<text transform="matrix(1 0 0 1 125.0348 153.018)"><tspan x="0" y="0" class="st2 st3 st4">G</tspan><tspan x="50.2" y="0" class="st2 st3 st4 st5">IT</tspan><tspan x="122.2" y="0" class="st2 st3 st4 st6">L</tspan><tspan x="166.5" y="0" class="st2 st3 st4 st7">A</tspan><tspan x="215.1" y="0" class="st2 st3 st4">B</tspan></text>
</svg>
