<?xml version="1.0" encoding="utf-8"?>
<!-- Generator: Adobe Illustrator 21.0.0, SVG Export Plug-In . SVG Version: 6.00 Build 0)  -->
<svg version="1.1" id="Layer_1" xmlns="http://www.w3.org/2000/svg" xmlns:xlink="http://www.w3.org/1999/xlink" x="0px" y="0px"
	 viewBox="0 0 512 512" style="enable-background:new 0 0 512 512;" xml:space="preserve">
<style type="text/css">
	.st0{fill:#FCA326;}
	.st1{fill:#FC6D26;}
	.st2{fill:#E24329;}
</style>
<g id="_x31_44-gitlab">
	<g>
		<g id="XMLID_6_">
			<g>
				<g>
					<path class="st0" d="M39.5,202.2l216.4,281.3L18.7,307.4c-6.5-4.9-9.3-13.4-6.8-21.1L39.5,202.2L39.5,202.2z"/>
				</g>
				<g>
					<polygon class="st1" points="165.8,202.2 256,483.5 255.9,483.5 39.5,202.2 39.6,202.2 					"/>
				</g>
				<g>
					<polygon class="st2" points="346.3,202.2 256,483.5 256,483.5 165.8,202.2 165.9,202.2 346.2,202.2 					"/>
				</g>
				<g>
					<polygon class="st1" points="472.6,202.2 256,483.5 346.3,202.2 472.5,202.2 					"/>
				</g>
				<g>
					<path class="st0" d="M500.1,286.4c2.4,7.7-0.3,16.2-6.9,21.1L256,483.5l216.5-281.3l0,0L500.1,286.4z"/>
				</g>
				<g>
					<path class="st2" d="M418.4,34.9l54.1,167.3H346.3h-0.1l54.2-167.3C403.4,26.4,415.4,26.4,418.4,34.9z"/>
				</g>
				<g>
					<path class="st2" d="M165.9,202.2L165.9,202.2H39.6L93.6,34.9c3.1-8.5,15.1-8.5,18.1,0C111.7,34.9,165.8,202.2,165.9,202.2z"/>
				</g>
			</g>
		</g>
	</g>
</g>
<g id="Layer_1_1_">
</g>
</svg>
