<?xml version="1.0" encoding="utf-8"?>
<!-- Generator: Adobe Illustrator 21.0.0, SVG Export Plug-In . SVG Version: 6.00 Build 0)  -->
<svg version="1.1" id="Layer_1" xmlns="http://www.w3.org/2000/svg" xmlns:xlink="http://www.w3.org/1999/xlink" x="0px" y="0px"
	 viewBox="0 0 512 512" style="enable-background:new 0 0 512 512;" xml:space="preserve">
<style type="text/css">
	.st0{fill:#F15A24;}
	.st1{fill:#999999;}
	.st2{fill:none;stroke:#FFFFFF;stroke-width:3.7302;stroke-linecap:round;stroke-linejoin:round;}
	.st3{fill:#666666;}
	.st4{fill:none;stroke:#FFFFFF;stroke-width:2.3357;stroke-linecap:round;stroke-linejoin:round;}
	.st5{fill:#FF931E;}
</style>
<g>
	<polygon class="st0" points="89.9,497.8 0.5,500.9 46.3,454.3 89.9,497.8 	"/>
	<path class="st0" d="M495.6,266.6C479,396.2,360.5,487.7,230.9,471.1C101.4,454.5,9.8,336,26.5,206.4C43.1,76.9,161.6-14.7,291.1,2
		C420.7,18.6,512.2,137.1,495.6,266.6"/>
	<path class="st1" d="M321.3,169.3c15.5,16.5,0.2,55.6,0.2,55.6s-15.2,55.2-102,126.8l-16.2-15.9l110.2-112.6l2.1-2.9
		C318.6,215.5,321,169,321.3,169.3"/>
	<path class="st2" d="M321.3,169.3c15.5,16.5,0.2,55.6,0.2,55.6s-15.2,55.2-102,126.8l-16.2-15.9l110.2-112.6l2.1-2.9
		C318.6,215.5,321,169,321.3,169.3L321.3,169.3z"/>
	<path class="st3" d="M179.6,312.4l141.5-143.5c7.2,8.5,8.7,17.7,6.6,30.8c-1.4,9.1-17.1,27.2-17.1,27.2L203.4,335.8"/>
	<path class="st4" d="M179.6,312.4l141.5-143.5c7.2,8.5,8.7,17.7,6.6,30.8c-1.4,9.1-17.1,27.2-17.1,27.2L203.4,335.8"/>
	<path class="st5" d="M321.3,169.4l-141.7,143l0.3-0.3l-0.1,0l-35.2-34.7c73.3-91.2,120.8-108.2,120.8-108.2s30.9-12,52.9-2.7
		C320,167.5,320.7,168,321.3,169.4"/>
	<path class="st2" d="M321.3,169.4l-141.7,143l0.3-0.3l-0.1,0l-35.2-34.7c73.3-91.2,120.8-108.2,120.8-108.2s30.9-12,52.9-2.7
		C320,167.5,320.7,168,321.3,169.4L321.3,169.4z"/>
	<path class="st1" d="M219.6,351.7c-33.8,27.9-77.1,71.6-135.9,102.1l13.1,55.9l-55.5-54.6l138.3-142.7"/>
	<path class="st2" d="M219.6,351.7c-33.8,27.9-77.1,71.6-135.9,102.1l13.1,55.9l-55.5-54.6l138.3-142.7"/>
	<polygon class="st0" points="145.6,278 179.9,312.2 100.6,329.4 144.8,277.3 145.6,278 	"/>
	<polygon class="st2" points="145.6,278 179.9,312.2 100.6,329.4 144.8,277.3 145.6,278 	"/>
	<path class="st1" d="M307.8,127.9c-3.4,30.4,18.5,57.8,48.9,61.2c30.4,3.4,57.8-18.5,61.2-48.9c3.4-30.4-18.6-57.8-49-61.2
		C338.6,75.6,311.2,97.5,307.8,127.9"/>
	<path class="st2" d="M307.8,127.9c-3.4,30.4,18.5,57.8,48.9,61.2c30.4,3.4,57.8-18.5,61.2-48.9c3.4-30.4-18.6-57.8-49-61.2
		C338.6,75.6,311.2,97.5,307.8,127.9L307.8,127.9z"/>
	<path class="st3" d="M410,164.6c10.2-14.9,9.7-37.3,7.6-43.9c-2.5-8.1-8.2-21.3-18-28.1l-52,47.9c0,0,39.9,42.9,41,43
		C389.1,183.6,400.7,178.3,410,164.6"/>
	<path class="st2" d="M410,164.6c10.2-14.9,9.7-37.3,7.6-43.9c-2.5-8.1-8.2-21.3-18-28.1l-52,47.9c0,0,39.9,42.9,41,43
		C389.1,183.6,400.7,178.3,410,164.6L410,164.6z M399.5,127.2c0,0,5,12.3-1.3,21.8L399.5,127.2z"/>
	<polyline class="st3" points="204.6,335.8 147.3,346 181.9,310.1 	"/>
	<path class="st2" d="M204.6,335.8L147.3,346l34.6-36 M146.9,278.2l72.9,68.6"/>
</g>
</svg>
