<?xml version="1.0" encoding="utf-8"?>
<!-- Generator: Adobe Illustrator 21.0.0, SVG Export Plug-In . SVG Version: 6.00 Build 0)  -->
<svg version="1.1" id="Layer_1" xmlns="http://www.w3.org/2000/svg" xmlns:xlink="http://www.w3.org/1999/xlink" x="0px" y="0px"
	 viewBox="0 0 512 512" style="enable-background:new 0 0 512 512;" xml:space="preserve">
<style type="text/css">
	.st0{fill:#FDBD39;}
	.st1{fill:#F69833;}
	.st2{fill:#FECF33;}
	.st3{fill:#EE6723;}
</style>
<g>
	<path class="st0" d="M81.7,332.3L55.3,342l-1.4,78.4l91.3-33.3C113.9,376.6,91,358.1,81.7,332.3"/>
	<path class="st1" d="M95.5,249.4L4,282.8L55.3,342l26.4-9.6C72.4,306.7,78.1,277.7,95.5,249.4"/>
	<path class="st2" d="M249.4,136.2C132.9,178.7,57.8,266.6,81.7,332.3l421.9-154.1C479.7,112.4,365.9,93.6,249.4,136.2"/>
	<path class="st3" d="M335.8,374.4c116.5-42.6,191.8-130,167.8-196.2L81.7,332.3C105.7,398.5,219.3,416.9,335.8,374.4"/>
	<path class="st1" d="M503.6,178.2L81.7,332.3c8.3,22.8,39.8,34,84,34c43.1,0,98.3-10.7,155.8-31.7
		C437.9,292.1,519.9,223.2,503.6,178.2"/>
	<path class="st0" d="M419.6,144.2c-43.1,0-98.3,10.7-155.8,31.7C147.3,218.4,65.4,287.3,81.7,332.3l421.9-154.1
		C495.3,155.4,463.8,144.2,419.6,144.2"/>
	<path class="st3" d="M396.3,424.6L396.3,424.6c-12.4,0-30.7-11.2-54.4-33.3c-28-26.2-60.2-64.5-90.5-107.9
		c-30.3-43.4-55.2-86.8-70.1-122.2c-16.2-38.6-18.6-62.3-6.9-70.5c2.6-1.8,5.6-2.7,9.2-2.7c9.5,0,28,7.1,62.2,40.7l0.7,0.7l-0.1,1
		c-0.2,2.4-0.4,4.9-0.6,7.3l-0.4,4.8l-3.4-3.4C205.2,102,189,97.9,183.7,97.9c-1.5,0-2.7,0.3-3.6,0.9c-5.1,3.6-5.4,21,10.4,58.4
		c14.6,34.8,39.2,77.5,69.1,120.4c29.9,42.9,61.5,80.6,89.1,106.3c29.7,27.7,43.1,30.7,47.5,30.7c1.5,0,2.7-0.3,3.6-1
		c5.3-3.8,5.3-22.4-12.2-62.7l-0.8-1.8l1.8-1c1.8-1,3.5-1.9,5.1-2.8l2.1-1.2l1,2.2c12.4,28.5,24.1,64.8,8.8,75.5
		C402.9,423.7,399.8,424.6,396.3,424.6z M396.3,420.2L396.3,420.2l0,2.2C396.3,422.4,396.3,420.2,396.3,420.2z"/>
	<path class="st3" d="M338.6,373.2l-0.2,2.2c-2.9,36.4-10.7,80.3-30.9,82c-0.4,0-0.8,0.1-1.3,0.1c-13.7,0-26.7-19.7-38.6-58.5
		c-11.3-36.7-20-86-24.6-138.8c-4.6-52.8-4.5-102.9,0.2-141c5.2-41.6,15-63.3,29.2-64.5c0.4,0,0.9-0.1,1.3-0.1
		c10,0,25,11.3,40.4,63.8l-10,1.9c-5.1-17.6-10.7-31.8-16.3-41.7c-5.1-9.1-10.1-14.1-14.1-14.1c-0.1,0-0.3,0-0.4,0
		c-6.2,0.5-15.1,15.5-20.1,55.7c-4.6,37.5-4.7,86.8-0.2,138.9c4.5,52.1,13.1,100.7,24.2,136.8c4.9,16.2,10.4,29.5,15.7,38.5
		c4.9,8.3,9.7,12.9,13.4,12.9c0.1,0,0.3,0,0.4,0c5.9-0.5,17-16,21.7-70.7L338.6,373.2"/>
</g>
</svg>
