<svg width="41" height="40" viewBox="0 0 41 40" fill="none" xmlns="http://www.w3.org/2000/svg">
<g clip-path="url(#clip0)">
<path fill-rule="evenodd" clip-rule="evenodd" d="M20.9053 1.06035e-05C16.1526 -0.00494312 11.5534 1.72596 7.93212 4.88252C4.31079 8.03909 1.90399 12.415 1.14302 17.226C0.382044 22.0371 1.31665 26.9688 3.77934 31.1374C6.24203 35.3059 10.0718 38.4389 14.5824 39.9748C15.5769 40.1637 15.9452 39.5342 15.9452 38.9802C15.9452 38.4262 15.9452 37.2049 15.9452 35.4926C10.359 36.7391 9.18033 32.7353 9.18033 32.7353C8.81201 31.4965 8.02381 30.4337 6.95811 29.7388C5.14105 28.4797 7.09316 28.4797 7.09316 28.4797C7.72828 28.5686 8.33511 28.8055 8.86715 29.1721C9.39918 29.5388 9.8423 30.0255 10.1625 30.5949C10.434 31.1002 10.8004 31.5453 11.2406 31.9046C11.6807 32.2639 12.1859 32.5303 12.7269 32.6883C13.268 32.8464 13.8342 32.8929 14.3929 32.8253C14.9516 32.7578 15.4917 32.5774 15.9821 32.2946C16.0612 31.2594 16.4963 30.2867 17.2098 29.5499C12.8145 29.0589 8.14903 27.2962 8.14903 19.4397C8.12184 17.4021 8.86043 15.4319 10.2116 13.9377C9.60203 12.169 9.67228 10.2286 10.4081 8.51118C10.4081 8.51118 12.0901 7.9572 15.9084 10.6138C19.1874 9.69247 22.6478 9.69247 25.9268 10.6138C29.7451 7.9572 31.4271 8.51118 31.4271 8.51118C32.1561 10.2316 32.2176 12.1724 31.599 13.9377C32.9468 15.4332 33.6811 17.4036 33.6493 19.4397C33.6493 27.3214 28.9716 29.0463 24.5149 29.5121C24.9902 30.0067 25.3574 30.5992 25.5924 31.2504C25.8274 31.9016 25.9246 32.5966 25.8777 33.2893C25.8777 36.034 25.8777 38.2373 25.8777 38.9172C25.8777 39.5971 26.2337 40.1007 27.2528 39.8993C31.712 38.3229 35.4844 35.181 37.9036 31.0286C40.3228 26.8763 41.2331 21.9807 40.4737 17.2068C39.7142 12.4329 37.3339 8.08785 33.7532 4.9393C30.1725 1.79074 25.6219 0.0412938 20.9053 1.06035e-05Z" fill="white"/>
</g>
<defs>
<clipPath id="clip0">
<rect width="40" height="40" fill="white" transform="translate(0.904785)"/>
</clipPath>
</defs>
</svg>
