<?xml version="1.0" encoding="utf-8"?>
<!-- Generator: Adobe Illustrator 21.0.0, SVG Export Plug-In . SVG Version: 6.00 Build 0)  -->
<svg version="1.1" id="Layer_1" xmlns="http://www.w3.org/2000/svg" xmlns:xlink="http://www.w3.org/1999/xlink" x="0px" y="0px"
	 viewBox="0 0 41 40" style="enable-background:new 0 0 41 40;" xml:space="preserve">
<style type="text/css">
	.st0{fill:#FFFFFF;}
</style>
<g>
	<path class="st0" d="M20.5,40c-4.8,0-5-0.5-5-1c0-0.6,0-1.8,0-3.5c-5.6,1.2-6.8-2.8-6.8-2.8c-0.4-1.2-1.2-2.3-2.2-3
		c-1.8-1.3,0.1-1.3,0.1-1.3c0.6,0.1,1.2,0.3,1.8,0.7c0.5,0.4,1,0.9,1.3,1.4c0.3,0.5,0.6,1,1.1,1.3c0.4,0.4,0.9,0.6,1.5,0.8
		c0.5,0.2,1.1,0.2,1.7,0.1c0.6-0.1,1.1-0.2,1.6-0.5c0.1-1,0.5-2,1.2-2.7c-4.4-0.5-9.1-2.3-9.1-10.1c0-2,0.7-4,2.1-5.5
		c-0.6-1.8-0.5-3.7,0.2-5.4c0,0,1.7-0.6,5.5,2.1c3.3-0.9,6.7-0.9,10,0C29.3,8,31,8.5,31,8.5c0.7,1.7,0.8,3.7,0.2,5.4
		c1.3,1.5,2.1,3.5,2.1,5.5c0,7.9-4.7,9.6-9.1,10.1c0.5,0.5,0.8,1.1,1.1,1.7c0.2,0.7,0.3,1.3,0.3,2c0,2.7,0,4.9,0,5.6
		C25.5,39.6,25.2,40,20.5,40z"/>
</g>
</svg>
