<?xml version="1.0" encoding="utf-8"?>
<!-- Generator: Adobe Illustrator 21.0.0, SVG Export Plug-In . SVG Version: 6.00 Build 0)  -->
<svg version="1.1" id="Layer_1" xmlns="http://www.w3.org/2000/svg" xmlns:xlink="http://www.w3.org/1999/xlink" x="0px" y="0px"
	 viewBox="0 0 40 40" style="enable-background:new 0 0 40 40;" xml:space="preserve">
<style type="text/css">
	.st0{fill:#FFFFFF;}
</style>
<g>
	<path class="st0" d="M16.9,16.9c1.2,0,2.4,0,3.6,0c0,0.5,0,0.9,0,1.5c0.9-1.1,1.8-1.6,3.1-1.9c2.6-0.6,5.1,1.1,5.5,3.7
		c0.1,0.4,0.1,0.8,0.1,1.3c0,2.4,0,4.8,0,7.2c0,0.2,0,0.3,0,0.5c-1.3,0-2.6,0-3.9,0c0-0.2,0-0.4,0-0.6c0-2,0-3.9,0-5.9
		c0-0.4-0.1-0.8-0.1-1.2c-0.2-0.9-0.7-1.4-1.7-1.6c-0.8-0.2-1.9,0.3-2.3,1.2c-0.3,0.5-0.4,1.2-0.4,1.7c-0.1,1.9,0,3.9,0,5.8
		c0,0.2,0,0.4,0,0.6c-1.3,0-2.6,0-3.9,0C16.9,25.2,16.9,21.1,16.9,16.9z"/>
	<path class="st0" d="M11.1,16.9c1.3,0,2.6,0,3.9,0c0,4.1,0,8.2,0,12.3c-1.3,0-2.5,0-3.9,0C11.1,25.2,11.1,21.1,11.1,16.9z"/>
	<path class="st0" d="M15.3,13c0,1.3-1,2.2-2.3,2.2c-1.3,0-2.2-1-2.2-2.3c0-1.3,1-2.2,2.3-2.2C14.3,10.8,15.3,11.7,15.3,13z"/>
</g>
</svg>
