<svg version="1.1" id="Layer_1" xmlns="http://www.w3.org/2000/svg" xmlns:xlink="http://www.w3.org/1999/xlink" x="0px" y="0px"
	 viewBox="0 0 1809.5 903" style="enable-background:new 0 0 1809.5 903;" xml:space="preserve">
  <style type="text/css">
    .st0{fill:#21C3CF;}
  </style>
  <g id="Gradient">
    <path class="st0" d="M1450.3,394.5L1797.2,0h-285.3l-268.8,308.8V0H453.9C206,0,1.8,198.9,0,446.7C-1.8,696.7,194.2,903,443.8,903
      c220.9,0,326.4-127.4,381.1-222.1c25.8-44.8,30.4-115.3,30.6-169.1c0-0.9,0-1.7,0-2.6v-130H430.2V567c0,0,206.1,0,213.4,0
      c1,6.1-11.3,24.8-18.2,33.5c-42.1,53.4-83.5,85.2-152.1,90.7c-58.6,4.7-112-9.6-159.2-43.7c-83.5-60.4-118.8-161.7-90.2-262
      C254,279.8,348.5,219.3,442.2,212.4c0.2,0,387.3,0,387.3,0h201.3V903h212.5c0-5.1,0.1-280.6,0.1-280.6l59.9-67.3l243,347.9h263.2
      L1450.3,394.5z"/>
  </g>
</svg>