<svg width="21" height="21" viewBox="0 0 21 21" fill="none" xmlns="http://www.w3.org/2000/svg">
<g clip-path="url(#clip0)">
<path d="M20.9372 17.7934C20.8114 18.6108 20.3084 19.3024 19.6168 19.6796C15.2156 22.006 9.80844 21.1886 6.28748 17.6048L3.39527 14.6497C-0.188563 11.1916 -1.00593 5.78443 1.32042 1.38323C1.69766 0.628739 2.38928 0.125745 3.14377 -3.83465e-06C3.89826 -0.125752 4.71563 0.125745 5.2815 0.691613C6.09886 1.50898 6.28748 2.76646 5.78449 3.70958C4.52701 6.16167 4.96713 9.17964 6.91623 11.1287L9.80844 14.0838C11.7575 16.0329 14.7755 16.4731 17.2276 15.2156C18.1707 14.7126 19.4282 14.8383 20.1827 15.6557C20.8114 16.1587 21.0629 16.976 20.9372 17.7934Z" fill="white"/>
</g>
<defs>
<clipPath id="clip0">
<rect width="21" height="21" fill="white"/>
</clipPath>
</defs>
</svg>
